<?xml version="1.0" standalone="no"?><!DOCTYPE svg PUBLIC "-//W3C//DTD SVG 1.1//EN" "http://www.w3.org/Graphics/SVG/1.1/DTD/svg11.dtd"><svg t="1526032975798" class="icon" style="" viewBox="0 0 1024 1024" version="1.1" xmlns="http://www.w3.org/2000/svg" p-id="4241" xmlns:xlink="http://www.w3.org/1999/xlink" width="32" height="32"><defs><style type="text/css"></style></defs><path d="M512 0C230.4 0 0 230.4 0 512s230.4 512 512 512 512-230.4 512-512S793.6 0 512 0z m0 896c-213.333333 0-384-170.666667-384-384s170.666667-384 384-384 384 170.666667 384 384-170.666667 384-384 384z" p-id="4242" fill="#707070"></path><path d="M512 512m-256 0a256 256 0 1 0 512 0 256 256 0 1 0-512 0Z" p-id="4243" fill="#707070"></path></svg>